<svg width="944" height="531" viewBox="0 0 944 531" fill="none" xmlns="http://www.w3.org/2000/svg">
  <g clip-path="url(#clip0_6056_37473)" opacity="0.15">
    <path d="M472 616.783C666.214 616.783 823.655 459.508 823.655 265.5C823.655 71.4919 666.214 -85.7827 472 -85.7827C277.786 -85.7827 120.345 71.4919 120.345 265.5C120.345 459.508 277.786 616.783 472 616.783Z" stroke="#103F47" stroke-miterlimit="10"/>
    <path d="M472 566.91C638.641 566.91 773.73 431.964 773.73 265.5C773.73 99.0357 638.641 -35.9102 472 -35.9102C305.359 -35.9102 170.27 99.0357 170.27 265.5C170.27 431.964 305.359 566.91 472 566.91Z" stroke="#103F47" stroke-dasharray="12.08 12.08" stroke-miterlimit="10"/>
    <path d="M472 709.195C717.306 709.195 916.166 510.546 916.166 265.5C916.166 20.4538 717.306 -178.195 472 -178.195C226.694 -178.195 27.8344 20.4538 27.8344 265.5C27.8344 510.546 226.694 709.195 472 709.195Z" stroke="#103F47" stroke-miterlimit="10"/>
    <path d="M472 -60.743C550.655 -60.743 622.809 -32.9656 679.181 13.3025L771.03 -98.4949C600.76 -238.386 349.878 -243.463 172.997 -98.4537L264.805 13.3025C321.176 -32.9656 393.331 -60.743 471.986 -60.743H472Z" stroke="#103F47" stroke-miterlimit="10"/>
    <path d="M472 -198.447C360.139 -198.447 257.533 -158.934 177.363 -93.1431L264.819 13.3024C321.19 -32.9657 393.345 -60.7431 472 -60.7431C550.655 -60.7431 622.81 -32.9657 679.181 13.3024L766.637 -93.1431C686.48 -158.934 583.861 -198.447 472 -198.447Z" stroke="#103F47" stroke-miterlimit="10"/>
    <path d="M472 -67.7183C391.664 -67.7183 317.954 -39.3355 260.384 7.92316L264.819 13.3163C321.19 -32.9518 393.345 -60.7292 472 -60.7292C550.655 -60.7292 622.81 -32.9518 679.181 13.3163L683.616 7.92316C626.032 -39.3355 552.335 -67.7183 472 -67.7183Z" stroke="#103F47" stroke-miterlimit="10"/>
    <path d="M472 -74.5283C390.025 -74.5283 314.813 -45.5677 256.06 2.654L264.819 13.3164C321.19 -32.9517 393.345 -60.7291 472 -60.7291C550.655 -60.7291 622.81 -32.9517 679.181 13.3164L687.94 2.654C629.186 -45.5677 553.974 -74.5283 472 -74.5283Z" stroke="#103F47" stroke-miterlimit="10"/>
    <path d="M472 591.744C393.345 591.744 321.19 563.966 264.819 517.698L172.97 629.496C343.24 769.387 594.121 774.464 771.003 629.454L679.195 517.698C622.823 563.966 550.669 591.744 472.014 591.744H472Z" stroke="#103F47" stroke-miterlimit="10"/>
    <path d="M472 729.461C583.861 729.461 686.467 689.948 766.637 624.157L679.181 517.712C622.81 563.98 550.655 591.757 472 591.757C393.345 591.757 321.19 563.98 264.819 517.712L177.363 624.157C257.533 689.962 360.153 729.461 472 729.461Z" stroke="#103F47" stroke-miterlimit="10"/>
    <path d="M472 598.733C552.335 598.733 626.046 570.35 683.616 523.091L679.181 517.698C622.81 563.966 550.655 591.744 472 591.744C393.345 591.744 321.19 563.966 264.819 517.698L260.384 523.091C317.967 570.35 391.664 598.733 472 598.733Z" stroke="#103F47" stroke-miterlimit="10"/>
    <path d="M472 605.543C553.974 605.543 629.186 576.582 687.94 528.361L679.181 517.698C622.81 563.966 550.655 591.744 472 591.744C393.345 591.744 321.19 563.966 264.819 517.698L256.06 528.361C314.813 576.582 390.025 605.543 472 605.543Z" stroke="#103F47" stroke-miterlimit="10"/>
    <path d="M943.311 265.5H798.589" stroke="#103F47" stroke-miterlimit="10"/>
    <path d="M934.263 357.348L792.309 329.145" stroke="#103F47" stroke-miterlimit="10"/>
    <path d="M907.434 445.674L773.729 390.354" stroke="#103F47" stroke-miterlimit="10"/>
    <path d="M863.885 527.067L743.554 446.748" stroke="#103F47" stroke-miterlimit="10"/>
    <path d="M887.684 487.403L760.04 419.273" stroke="#103F47" stroke-miterlimit="10"/>
    <path d="M943.311 265.5H798.589" stroke="#103F47" stroke-miterlimit="10"/>
    <path d="M934.263 173.652L792.309 201.856" stroke="#103F47" stroke-miterlimit="10"/>
    <path d="M907.434 85.3257L773.729 140.66" stroke="#103F47" stroke-miterlimit="10"/>
    <path d="M863.885 3.93311L743.554 84.2522" stroke="#103F47" stroke-miterlimit="10"/>
    <path d="M923.052 402.062L784.555 360.128" stroke="#103F47" stroke-miterlimit="10"/>
    <path d="M941.067 311.452L797.033 297.336" stroke="#103F47" stroke-miterlimit="10"/>
    <path d="M941.025 219.067L796.991 233.334" stroke="#103F47" stroke-miterlimit="10"/>
    <path d="M922.914 128.484L784.458 170.556" stroke="#103F47" stroke-miterlimit="10"/>
    <path d="M887.45 43.1709L759.875 111.438" stroke="#103F47" stroke-miterlimit="10"/>
    <path d="M798.589 265.5C798.589 344.072 770.782 416.15 724.465 472.461L836.381 564.213C976.421 394.123 981.503 143.508 836.34 -33.186L724.465 58.5247C770.782 114.836 798.589 186.914 798.589 265.486V265.5Z" stroke="#103F47" stroke-miterlimit="10"/>
    <path d="M936.453 265.5C936.453 153.758 896.898 51.2605 831.037 -28.8247L724.479 58.5385C770.796 114.85 798.603 186.928 798.603 265.5C798.603 344.072 770.796 416.15 724.479 472.461L831.037 559.825C896.912 479.739 936.453 377.229 936.453 265.5Z" stroke="#103F47" stroke-miterlimit="10"/>
    <path d="M805.586 265.5C805.586 185.25 777.173 111.617 729.864 54.1084L724.465 58.5385C770.782 114.85 798.589 186.928 798.589 265.5C798.589 344.072 770.782 416.15 724.465 472.461L729.864 476.891C777.173 419.369 805.586 345.75 805.586 265.5Z" stroke="#103F47" stroke-miterlimit="10"/>
    <path d="M812.403 265.5C812.403 183.613 783.412 108.48 735.139 49.7886L724.465 58.5387C770.782 114.85 798.589 186.928 798.589 265.5C798.589 344.072 770.782 416.15 724.465 472.462L735.139 481.212C783.412 422.52 812.403 347.388 812.403 265.5Z" stroke="#103F47" stroke-miterlimit="10"/>
    <path d="M801.991 536.037C862.535 462.432 898.895 368.217 898.895 265.514C898.895 162.811 862.535 68.596 801.991 -5.00928" stroke="#103F47" stroke-miterlimit="10"/>
    <path d="M0.688599 265.5H145.411" stroke="#103F47" stroke-miterlimit="10"/>
    <path d="M9.75098 173.652L151.691 201.856" stroke="#103F47" stroke-miterlimit="10"/>
    <path d="M36.5662 85.3257L170.27 140.66" stroke="#103F47" stroke-miterlimit="10"/>
    <path d="M80.1151 3.93311L200.46 84.2522" stroke="#103F47" stroke-miterlimit="10"/>
    <path d="M56.316 43.5977L183.96 111.741" stroke="#103F47" stroke-miterlimit="10"/>
    <path d="M0.688599 265.5H145.411" stroke="#103F47" stroke-miterlimit="10"/>
    <path d="M9.75098 357.348L151.691 329.145" stroke="#103F47" stroke-miterlimit="10"/>
    <path d="M36.5662 445.674L170.27 390.354" stroke="#103F47" stroke-miterlimit="10"/>
    <path d="M80.1151 527.067L200.46 446.748" stroke="#103F47" stroke-miterlimit="10"/>
    <path d="M20.9481 128.952L159.459 170.886" stroke="#103F47" stroke-miterlimit="10"/>
    <path d="M2.93359 219.562L146.981 233.664" stroke="#103F47" stroke-miterlimit="10"/>
    <path d="M2.98865 311.933L147.008 297.68" stroke="#103F47" stroke-miterlimit="10"/>
    <path d="M21.0858 402.53L159.555 360.458" stroke="#103F47" stroke-miterlimit="10"/>
    <path d="M56.5502 487.843L184.126 419.562" stroke="#103F47" stroke-miterlimit="10"/>
    <path d="M145.411 265.5C145.411 186.928 173.218 114.85 219.535 58.5386L107.619 -33.2134C-32.4206 136.877 -37.5027 387.492 107.66 564.186L219.535 472.475C173.218 416.164 145.411 344.086 145.411 265.514V265.5Z" stroke="#103F47" stroke-miterlimit="10"/>
    <path d="M7.56116 265.5C7.56116 377.242 47.116 479.739 112.976 559.825L219.535 472.461C173.218 416.15 145.411 344.072 145.411 265.5C145.411 186.928 173.218 114.85 219.535 58.5385L112.976 -28.8247C47.116 51.2605 7.56116 153.758 7.56116 265.5Z" stroke="#103F47" stroke-miterlimit="10"/>
    <path d="M138.428 265.5C138.428 345.75 166.841 419.383 214.15 476.891L219.549 472.461C173.232 416.15 145.425 344.072 145.425 265.5C145.425 186.928 173.232 114.85 219.549 58.5385L214.15 54.1084C166.841 111.631 138.428 185.25 138.428 265.5Z" stroke="#103F47" stroke-miterlimit="10"/>
    <path d="M131.611 265.5C131.611 347.388 160.602 422.52 208.875 481.212L219.549 472.462C173.232 416.15 145.425 344.072 145.425 265.5C145.425 186.928 173.232 114.85 219.549 58.5387L208.875 49.7886C160.602 108.48 131.611 183.613 131.611 265.5Z" stroke="#103F47" stroke-miterlimit="10"/>
    <path d="M142.009 -5.02344C81.4648 68.5818 45.1052 162.796 45.1052 265.5C45.1052 368.203 81.4648 462.418 142.009 536.023" stroke="#103F47" stroke-miterlimit="10"/>
    <path d="M195.488 286.88C200.391 350.511 227.179 412.765 275.892 461.427C324.606 510.089 386.899 536.835 450.57 541.733L748.526 244.092C743.623 180.489 716.835 118.248 668.135 69.5999C619.436 20.9517 557.101 -5.82139 493.403 -10.7192L195.502 286.866L195.488 286.88Z" stroke="#103F47" stroke-miterlimit="10"/>
    <path d="M204.041 290.017C209.743 352.478 237.233 411.142 281.732 455.594C326.231 500.046 384.93 527.493 447.43 533.189L739.959 240.97C734.258 178.536 706.754 119.872 662.282 75.4472C617.81 31.0227 559.057 3.53419 496.529 -2.16162L204.055 290.003L204.041 290.017Z" stroke="#103F47" stroke-miterlimit="10"/>
  </g>
  <defs>
    <clipPath id="clip0_6056_37473">
      <rect fill="white" height="943" transform="translate(0 -206)" width="944"/>
    </clipPath>
  </defs>
</svg>
