<svg xmlns="http://www.w3.org/2000/svg" width="512" height="512" viewBox="0 0 20 20" fill="none">
<path d="M3.68331 11.6874H0V14.1873H5.29041V19.4816H7.78851V15.7956C7.78851 13.5318 5.94825 11.6901 3.68608 11.6901L3.68331 11.6874Z" fill="#2A2823"/>
<path d="M7.50817 7.86253H0V10.3625H9.1125V19.4816H11.6106V11.968C11.6106 9.70414 9.77033 7.86253 7.50817 7.86253Z" fill="#2A2823"/>
<path d="M11.333 4.03488H0V6.53481H12.9374V19.4816H15.4355V8.14032C15.4355 5.87649 13.5952 4.03488 11.333 4.03488Z" fill="#2A2823"/>
<path d="M15.1579 0.207188H0V2.70711H16.7622V19.4816H19.2603V4.31262C19.2603 2.0488 17.4201 0.207188 15.1579 0.207188Z" fill="#2A2823"/>
</svg>